<svg xmlns="http://www.w3.org/2000/svg" xmlns:xlink="http://www.w3.org/1999/xlink" id="Layer_1" x="0px" y="0px" viewBox="0 0 483 448" style="enable-background:new 0 0 483 448;" xml:space="preserve"><style type="text/css">	.st0{fill-rule:evenodd;clip-rule:evenodd;fill:#CAA358;}	.st1{fill-rule:evenodd;clip-rule:evenodd;fill:#CCCCCC;}	.st2{fill:#CCCCCC;}	.st3{fill:#FFFFFF;}</style><path class="st0" d="M58.32,225.16c4.56-1.18,4.56-1.18,4.59,3.12c0.58,85.32,61.43,159.49,145.18,176.96 c99.42,20.74,196.44-42.94,216.87-142.4c2.41-11.73,3.66-23.62,3.61-35.62c0-1.16-0.8-2.98,1.84-2.72c2.02,0.2,3.24,0.61,3,2.99 c-0.23,2.33-0.42,4.69,0,7.03c-1,9.35-1.86,18.72-3.58,27.97c-1.73,9.07-4.39,17.88-7.17,26.67c-1.68,4.05-3.41,8.08-5.03,12.15 c-3.08,7.77-7.61,14.81-11.15,22.34c-1.82,1.87-3.14,4.05-4.04,6.5c-1.59,0.51-1.55,2.26-2.46,3.28c-3.06,2.88-4.39,6.27-4.12,10.61 c0.35,5.69,0.07,11.42,0.08,17.14c0,1.26,0.03,2.44-1.76,2.37c-1.77-0.07-1.33-1.38-1.33-2.36c-0.03-5.87-0.02-11.74-0.02-18.39 c-4.85,5.81-9.25,10.92-14.02,15.7c-4.76,4.77-9.78,9.25-15.66,14.16c6.73,0,12.5-0.05,18.27,0.03c1.93,0.03,1.78-1.22,1.63-2.37 c-0.27-2.15,0.6-2.69,2.69-2.69c24.8,0.07,49.59,0.07,74.39-0.01c2.18-0.01,2.74,0.69,2.65,2.75c-0.15,3.44-0.15,6.9,0,10.35 c0.08,1.96-0.46,2.58-2.5,2.58c-5.98,0-5.98,0.1-6.01,6.03c-0.02,3.97-0.02,3.97-4.58,4.64c4.44,8.3,5.53,16.95,2.62,25.89 c-2.06,6.33-5.91,11.46-11.34,15.32c-11.13,7.92-26.06,7.69-36.82-0.49c-12.18-9.26-14.82-22.25-8.18-40.93 c-3.96,0.51-4.85-1.69-4.44-4.99c0.07-0.53-0.08-1.09,0.02-1.61c0.64-3.33-0.79-4.47-3.99-3.94c-3.11,0.51-5.3-0.07-4.5-4.03 c0.33-1.62-0.59-1.96-2.05-1.95c-7.44,0.06-14.88,0.07-22.32,0c-1.56-0.01-2.62,0.76-3.77,1.57 c-36.81,26.1-77.83,37.61-122.75,34.58c-34.97-2.36-66.78-14.05-95.36-34.38c-1.66-1.18-3.26-1.82-5.33-1.79 c-6.68,0.1-13.37,0.13-20.05-0.01c-2.25-0.04-3.21,0.62-2.83,2.89c0.43,2.59-0.72,3.26-3.22,3.18c-5.41-0.17-5.54-0.04-5.38,5.67 c0.09,3.19-0.36,5.43-4.73,4.62c4.6,8.71,5.9,17.4,2.74,26.49c-2.19,6.3-6,11.4-11.44,15.26c-10.7,7.59-25.35,7.52-36.03-0.22 c-6.57-4.76-10.61-11.18-12.25-19.12c-1.62-7.83,0-15.14,3.73-22.15c-4.58-0.42-4.6-0.45-4.67-4.86c0-0.32-0.01-0.65-0.01-0.97 c-0.04-4.78-0.05-5.01-4.81-4.7c-3.25,0.21-4.1-0.92-3.82-3.95c0.26-2.89,0.24-5.83,0.03-8.72c-0.18-2.49,0.71-3.04,3.09-3.02 c17.46,0.1,34.93,0.05,52.4,0.05c7.22,0,14.45,0.08,21.67-0.05c2.13-0.04,2.96,0.57,2.76,2.7c-0.1,1.01-0.32,2.32,1.38,2.33 c5.76,0.01,11.52,0,18.27,0c-11.12-9.19-20.55-18.67-29.58-29.79c0,6.42,0.06,11.97-0.04,17.51c-0.02,1.15,0.95,3.18-1.5,3.12 c-2.16-0.06-1.3-1.9-1.31-2.99c-0.08-6.25-0.02-12.5-0.05-18.76c0-0.96,0.14-2.12-0.32-2.83c-2.95-4.47-6.06-8.84-9.13-13.23 c-0.08-0.12-0.41-0.07-0.62-0.09c-0.19-1.72-0.69-3.3-2.08-4.46c-1.39-2.64-2.48-5.46-4.45-7.76c-0.38-0.99-0.71-2.01-1.16-2.97 c-4.48-9.6-9.16-19.11-11.75-29.46c-0.24-0.96-0.5-1.85-1.26-2.52c-0.57-3.94-1.17-7.87-2.97-11.49 C60.22,253.06,57.75,239.25,58.32,225.16z M395.43,390.2c0.24,0.18,0.49,0.36,0.73,0.54c0.41,0.03,0.82,0.06,1.22,0.1 c1.08,0.02,2.15,0.03,3.23,0.05c1.54-0.01,3.07-0.02,4.6-0.04c1.94,0,3.87-0.01,5.81-0.01c1.71,0.01,3.43,0.02,5.14,0.03 c1.27,0,2.54,0,3.81,0c2-0.01,4.02,0.09,6.01-0.06c2.99-0.22,1.66-2.63,1.92-4.18c0.23-1.4-0.06-2.53-1.95-2.4 c-1.99,0.13-3.99,0.12-5.98,0.17c-1.28-0.55-2.55-0.59-3.82,0.02c-1.71-0.28-3.42-0.25-5.12,0.03c-1.93,0-3.86-0.01-5.79-0.01 c-1.55-0.28-3.1-0.26-4.66,0c-1.05,0.01-2.1,0.03-3.16,0.04c-0.69-0.27-1.39-0.27-2.08,0c-1.7,1.86-1.63,4.29,0.15,5.75 L395.43,390.2z M74.29,371.62c-0.68-0.32-1.55-0.85-1.6,0.45c-0.1,2.35-0.08,4.7,0.01,7.05c0.04,0.95,0.92,0.6,1.51,0.65 c0.61,0,1.21,0,1.82-0.01c7.53,0.03,15.06,0.06,22.58,0.07c6.77,0.01,6.69,0,6.44-6.65c-0.07-1.81-0.78-2.11-2.33-2.09 c-5.48,0.06-10.97-0.05-16.46,0.06c-3.42,0.06-6.87-0.48-10.27,0.37C75.43,371.56,74.86,371.59,74.29,371.62z M43.25,390.78 c1,0.02,2,0.04,3,0.06c1.62,0,3.23-0.01,4.85-0.02c1.93,0.01,3.86,0.02,5.79,0.03c1.69-0.01,3.38-0.03,5.07-0.04 c1.24,0,2.47,0.01,3.71,0.02c2.14,0.17,4.28,0.28,6.33-0.58c0.85,0.21,1.71,0.41,2.56,0.62c6.45,0.02,12.9-0.05,19.34,0.11 c3.17,0.08,3.23-1.73,3.42-4.12c0.23-3.02-1.6-2.63-3.43-2.61c-6.44,0.07-12.89,0.12-19.33,0.17c-0.99-0.37-1.73,0.28-2.54,0.63 c-2.05-0.81-4.16-1.01-6.33-0.61c-1.23-0.27-2.46-0.25-3.69,0.01c-1.7-0.26-3.4-0.33-5.11-0.01c-1.93,0.01-3.85,0.01-5.78,0.02 c-1.61-0.28-3.22-0.46-4.84,0c-1.01,0.02-2.03,0.05-3.04,0.07c-3.9-0.73-1.89,2.71-2.54,4.03 C39.85,390.27,42.04,390.38,43.25,390.78z M387.73,379.79c0.9,0,1.8,0,2.69,0c1.34-0.01,2.68-0.02,4.02-0.03 c2.02,0.01,4.03,0.02,6.05,0.03c2.43,0,4.87,0,7.3,0c2.16,0,4.32,0,6.48,0c1.63,0,3.26-0.01,4.89-0.01c3.09,0,6.19,0.01,9.28,0.01 c0.62,0,1.24,0.01,1.87,0.01c7.87,0.01,15.73,0.03,23.6,0.04c5.44,0.01,5.27,0,5.47-5.43c0.1-2.8-0.88-3.38-3.47-3.34 c-8.51,0.12-17.02-0.02-25.53-0.07c-0.67,0.01-1.34,0.02-2,0.02c-3.04,0.66-6.09-0.11-9.13,0.02c-1.67,0-3.35,0.01-5.02,0.01 c-2.14,0.3-4.35-0.35-6.46,0.46c-2.42-0.31-4.84-0.28-7.26,0.01c-1.95-0.83-4.01-0.16-5.99-0.45c-1.38-0.02-2.76-0.04-4.14-0.06 c-0.86,0.01-1.73,0.03-2.59,0.04c-1.63,1.27-2.07,6.84-0.66,8.66C387.21,379.83,387.52,379.77,387.73,379.79z M33.36,371.18 c-1.46,1.5-1.94,6.95-0.7,8.45c0.15,0.18,0.61,0.11,0.93,0.16c0.91,0,1.82,0,2.73,0c1.31,0,2.62,0,3.92,0 c1.98,0.01,3.96,0.01,5.94,0.02c2.49,0,4.99,0,7.48,0c2.18-0.01,4.35-0.03,6.53-0.04c1.57,0,3.14,0,4.71,0 c1.61,0.02,3.23,0.06,4.84,0.06c0.63,0,1.48,0.05,1.49-0.81c0.04-2.46,0.56-5.18-0.32-7.31c-0.6-1.45-3.36-0.44-5.15-0.54 c-0.29-0.02-0.59,0.21-0.89,0.33c-1.55-0.27-3.1-0.25-4.65,0.02c-2.12-0.84-4.37-0.14-6.53-0.5c-2.52,0-5.04,0.01-7.56,0.01 c-1.95,0.01-3.91,0.02-5.86,0.03c-1.35-0.01-2.69-0.02-4.04-0.03C35.28,371.08,34.32,371.13,33.36,371.18z M411.94,393.61 c-2.04,0.07-4.15-0.49-6.1,0.56c-2.76-1.28-4.67-0.66-6.27,2.11c-6.57,11.37-4.06,25.83,6.17,34.49c9.82,8.32,24.72,8.2,34.73-0.29 c9.96-8.44,12.37-23.01,5.77-34.28c-1.1-1.89-2.31-2.67-4.58-2.64C431.75,393.7,421.85,393.62,411.94,393.61z M51.91,393.66 c-4.22-0.98-6.28,1.32-7.74,4.88c-2.21,5.41-3.12,10.88-1.96,16.71c2.07,10.32,10.17,18.74,20.43,20.98 c10.98,2.4,21.74-1.69,28.13-10.7c6.18-8.7,6.57-20.52,1.1-29.57c-1.09-1.8-2.38-2.4-4.45-2.38c-8.94,0.11-17.88,0.06-26.82,0.04 c-1.19,0-2.35,0.04-3.45,0.51C55.5,392.96,53.66,393.8,51.91,393.66z M440.24,384.27c-3.12,0-6.24,0.06-9.35-0.03 c-1.59-0.04-2.28,0.68-1.94,2.09c0.38,1.54-1.36,4.32,1.32,4.48c6.32,0.37,12.69,0.27,19.02,0.03c2.78-0.1,2.13-2.65,2.3-4.51 c0.21-2.19-1.17-2.1-2.65-2.08C446.04,384.29,443.14,384.26,440.24,384.27z"></path><path class="st0" d="M85.72,126.95c2.59-1.45,3.11-4.51,5.01-6.48c4.51-4.67,5.68-10.25,5.15-16.57c-0.38-4.49-0.09-9.05-0.06-13.57 c0.01-1-0.36-2.25,1.45-2.23c1.78,0.03,1.42,1.27,1.42,2.27c0.02,6.11,0.01,12.22,0.01,19.19c9.03-11.12,18.46-20.76,29.04-29.28 c-0.66-1.07-1.61-0.59-2.36-0.6c-4.85-0.05-9.7,0.03-14.55-0.05c-1.63-0.03-2.47,0.44-2.22,2.18c0.28,2-0.61,2.52-2.56,2.52 c-24.9-0.06-49.79-0.06-74.69-0.01c-1.87,0-2.74-0.37-2.65-2.47c0.16-3.55,0.17-7.12,0.01-10.67c-0.09-2.08,0.73-2.49,2.61-2.5 c5.91-0.03,5.93-0.1,5.99-6.14c0.02-2.27-0.04-4.21,3.23-4.38c2.37-0.12,0.57-1.8,0.23-2.53c-3.36-7.24-4.1-14.66-1.83-22.33 c5.1-17.29,23.18-26.65,40.62-20.31c16.99,6.17,24.84,25.52,17.36,41.99c-0.43,0.95-1.22,1.78-1.13,3.21 c3.82-0.6,4.59,1.61,4.21,4.77c-0.04,0.32,0,0.65,0,0.97c0.01,4.78,0.03,5,4.79,4.72c3.14-0.18,4.38,0.74,3.82,3.88 c-0.36,2,0.59,2.58,2.54,2.56c7.11-0.09,14.23-0.06,21.34-0.01c1.5,0.01,2.68-0.52,3.86-1.36c24.57-17.64,51.81-28.93,81.74-33.15 c48.54-6.84,93.29,3.44,133.88,31.04c3.57,2.43,6.99,3.73,11.3,3.52c5.7-0.29,11.42-0.15,17.13-0.03c2.07,0.05,3.1-0.49,2.68-2.67 c-0.62-3.24,0.86-4.22,3.86-3.73c0.84,0.14,1.73-0.05,2.58,0.04c1.53,0.15,2.16-0.43,2.04-2c-0.1-1.29,0.09-2.59-0.03-3.88 c-0.3-3.13,0.49-5.18,4.44-4.51c-7.44-17.38-5.14-32.28,11.19-42.96c10.68-6.99,25.16-5.63,35.1,2.31 c11.69,9.33,14,21.39,7.63,40.52c4.09-0.59,4.78,1.76,4.39,5.02c-0.08,0.64,0.09,1.31-0.03,1.94c-0.59,3.12,0.91,3.99,3.71,3.56 c0.63-0.09,1.3,0.07,1.94-0.03c2.24-0.35,3.02,0.5,2.89,2.81c-0.2,3.33-0.2,6.69,0.01,10.02c0.15,2.37-0.75,2.82-2.93,2.81 c-18.97-0.08-37.94-0.05-56.91-0.05c-5.84,0-11.67-0.06-17.51,0.04c-1.78,0.03-2.61-0.42-2.41-2.32c0.12-1.16,0.28-2.39-1.63-2.36 c-5.78,0.07-11.57,0.02-18.38,0.02c11.19,9.19,20.74,18.71,29.79,30.04c0-4.78,0-8.77,0-12.77c0-2.16-0.13-4.32,0.07-6.46 c0.07-0.75-1.55-2.3,0.91-2.41c2.14-0.09,2.15,1.04,2.14,2.59c-0.04,6.47,0.17,12.94-0.08,19.4c-0.15,3.73,1.44,6.28,4.07,8.51 c0.72,1.25,0.75,3.03,2.59,3.44c0.45,2.78,2.37,4.73,3.9,6.89c3.21,6.02,6.41,12.04,9.62,18.07c0.89,2.42,1.72,4.87,3.19,7.02 c0.5,1.9,0.66,3.95,2.41,5.27c0.44,2.37,0.66,4.82,2.24,6.82c-0.11,3.46,2.44,6.37,2.04,9.88c-3.27,0.23-4.66-1.32-5.74-4.48 c-22.9-66.67-68.55-109.06-137.36-124.3C191.43,26.93,98.71,82.2,71.12,171.94c-1,3.25-2.64,4.3-5.67,4.07 c-0.07-3.94,2.26-7.31,2.63-11.14c3.42-7.92,6.36-16.04,10.3-23.73c0.13-0.24-0.02-0.63-0.04-0.95c0.29-0.36,0.57-0.72,0.86-1.08 c1.89-2.33,2.94-5.16,4.47-7.7C84.86,130.16,85.46,128.63,85.72,126.95z M395.44,61.74l0.06-0.04c-1.81,1.43-1.87,3.89-0.15,5.78 c0.69,0,1.38,0,2.06,0c1.06,0,2.11,0.01,3.17,0.01c1.55,0.26,3.1,0.3,4.65,0c1.93,0.19,3.86,0.3,5.78-0.03 c1.71,0.31,3.42,0.34,5.13,0.04c1.23,0.77,2.61,0.24,3.91,0.43c1.48-0.13,3-0.53,4.44-0.32c2.74,0.39,2.51-1.17,2.67-3.06 c0.23-2.69-0.51-3.93-3.36-3.56c-1.27,0.16-2.56,0.07-3.85,0.09c-1.27,0-2.54-0.01-3.81-0.01c-1.72,0.01-3.44,0.03-5.15,0.04 c-1.93,0-3.85-0.01-5.78-0.01c-1.54,0-3.09-0.01-4.63-0.01c-1.07,0-2.15,0-3.22,0c-0.4,0.03-0.8,0.05-1.2,0.07 C395.93,61.35,395.68,61.54,395.44,61.74z M74.27,80.44c0.58,0,1.16,0,1.73,0c7.6,0.84,15.23,0.23,22.84,0.35 c6.49,0.11,6.42,0.02,6.19-6.58c-0.06-1.72-0.6-2.17-2.25-2.15c-8.92,0.09-17.84,0.08-26.76,0.11c-0.59,0-1.19,0.01-1.78,0.01 c-1.97-0.37-1.81,1.08-1.58,2.13c0.46,2.07-1.44,4.65,1.3,6.21C74.04,80.55,74.17,80.47,74.27,80.44z M41.64,61.61 c-0.91-0.92-1.5-0.04-1.5,0.55c0.02,1.77-1.36,3.82,0.83,5.24c0.71,0.81,1.46,0.11,2.19,0.06c1.04,0.45,2.08,0.78,3.07-0.12 c1.61,0.51,3.24,0.37,4.86,0.1c1.92,0.34,3.85,0.21,5.77,0c1.71,0.36,3.42,0.3,5.13-0.01c1.22,0.28,2.44,0.29,3.66,0.02 c2.18,0.47,4.28,0.19,6.34-0.59c0.81,0.34,1.55,0.98,2.53,0.62c6.55,0.06,13.11,0.08,19.66,0.21c1.93,0.04,3.32-0.01,3.09-2.63 c-0.19-2.15,0.05-4.14-3.07-4.09c-6.56,0.11-13.12,0.07-19.67,0.08c-0.85,0.21-1.7,0.42-2.55,0.62c-2.05-0.85-4.19-0.79-6.34-0.58 c-1.23,0.01-2.46,0.01-3.69,0.02c-1.69-0.02-3.39-0.04-5.08-0.06c-1.92,0.01-3.83,0.03-5.75,0.04c-1.63,0-3.26,0.01-4.88,0.01 c-1,0.02-1.99,0.03-2.99,0.05C42.71,61.32,42.18,61.47,41.64,61.61z M428.38,80.92c0.66,0,1.33,0,1.99,0 c7.65-0.04,15.3-0.1,22.95-0.12c6.15-0.02,6.06,0,6.05-6.18c0-1.98-0.53-2.6-2.54-2.57c-8.84,0.11-17.68,0.08-26.51,0.09 c-0.62,0-1.25,0-1.88,0c-0.84-0.02-1.83-0.21-1.87,1.06c-0.06,2.11-0.07,4.23-0.01,6.34C426.6,80.64,427.53,80.79,428.38,80.92z  M387.83,80.92c0.85,0,1.7,0,2.55,0c1.39,0,2.78,0.01,4.17,0.01c1.96-0.44,4.03,0.31,5.96-0.51c2.45,0.15,4.91,0.31,7.37,0.46 c2.11,0.01,4.23,0.02,6.34,0.03c1.69,0,3.38-0.01,5.07-0.01c1.07-0.03,2.16-0.19,3.21-0.07c2.24,0.26,2.93-0.58,2.9-2.85 c-0.07-6.04,0.04-6.04-6.21-5.83c-1.63,0-3.26,0-4.89-0.01c-2.17,0.01-4.33,0.01-6.5,0.02c-2.42,0-4.85,0-7.28,0 c-2.01,0-4.02-0.01-6.03-0.01c-1.35,0-2.7-0.01-4.05-0.01c-0.91,0.01-1.81,0.03-2.72,0.04c-1.63,1.29-1.97,6.89-0.49,8.61 C387.32,80.92,387.62,80.88,387.83,80.92z M33.36,80.76c0.97,0.04,1.93,0.08,2.9,0.12c1.32-0.17,2.65-0.34,3.97-0.51 c1.91,0.95,3.97,0.19,5.94,0.5c2.52,0.02,5.04,0.04,7.57,0.06c2.15-0.4,4.38,0.31,6.49-0.5c1.55,0.27,3.1,0.3,4.66,0.01 c1.55,0.71,3.18,0.27,4.77,0.35c0.96,0.05,1.49-0.31,1.69-1.44c1.14-6.36,0.27-7.42-6.14-7.21c-0.11,0-0.21,0.02-0.32,0.03 c-1.56,0.01-3.13,0.01-4.69,0.02c-2.18-0.02-4.36-0.03-6.54-0.05c-2.49,0-4.99,0-7.48,0c-1.98,0-3.96,0.01-5.94,0.01 c-1.31,0-2.62,0.01-3.93,0.01c-0.91,0-1.82,0-2.73,0C31.46,73.39,31.33,78.7,33.36,80.76z M72.5,58.31c5.06,0,10.13-0.1,15.19,0.05 c2.01,0.06,3.21-0.67,4.15-2.34c3.09-5.52,4.58-11.33,3.56-17.68C93.56,26.9,87.08,19.2,76.04,16.08 c-11.04-3.12-20.85-0.1-28.15,8.83c-7.26,8.9-8.1,18.87-3.28,29.36c1.38,3,3.24,4.91,6.66,3.98c2.41-0.66,4.68,0.09,7.01,0.07 C63.02,58.29,67.76,58.31,72.5,58.31z M426.79,58.31c5.17,0,10.33-0.07,15.5,0.04c1.74,0.03,2.74-0.58,3.61-2.05 c2.71-4.55,4.06-9.41,3.98-14.73c-0.17-11.34-7.35-21.43-17.98-25.09c-11-3.79-22.8-0.35-30.18,8.81 c-6.85,8.5-7.62,21.09-2.01,30.59c1.05,1.78,2.21,2.54,4.35,2.5C411.63,58.23,419.21,58.31,426.79,58.31z M440.25,67.67 c2.79,0,5.59-0.04,8.38,0.01c1.73,0.03,3.24,0.09,2.99-2.44c-0.21-2.07,0.07-4.27-3.01-4.25c-5.91,0.02-11.82,0.07-17.73-0.03 c-2.93-0.05-1.88,2.03-1.91,3.37c-0.03,1.37-0.93,3.45,1.93,3.36C434.02,67.6,437.14,67.67,440.25,67.67z"></path><path class="st0" d="M344.48,195.82c0-5.39,0.21-10.79-0.09-16.16c-0.15-2.76,1.07-3.76,3.29-4.6c11.85-4.5,24.04-5.42,36.54-3.77 c12.83,1.69,25.2,5.47,37.8,8.21c16.61,3.62,33.05,4.42,49.14-2.31c1.83-0.77,1.95,0.02,1.95,1.49 c-0.02,11.64-0.06,23.27,0.04,34.91c0.02,1.93-1.14,2.26-2.44,2.79c-11.98,4.88-24.4,5.8-37.11,4.15 c-14.01-1.82-27.47-6.2-41.28-8.91c-15.51-3.05-30.8-3.25-45.68,2.93c-1.97,0.82-2.18,0.09-2.17-1.58 C344.51,207.25,344.48,201.53,344.48,195.82z M463.94,188.14c2.59,1.15,4.43,0.46,6.23-0.44c0.45-0.23,1.01-0.63,0.77-1.22 c-0.35-0.85-1.04-0.4-1.6-0.21C467.74,186.81,466.16,187.37,463.94,188.14z M472.6,194.99c-5.46,0.83-5.98,0.99-7.72,2.41 C467.49,197.4,470.04,197.8,472.6,194.99z M463.31,184.2c3.03,0.3,4.9-0.29,6.72-1.07c0.47-0.2,1.01-0.53,0.81-1.18 c-0.21-0.65-0.86-0.67-1.33-0.48C467.71,182.2,465.94,183.02,463.31,184.2z M464.72,192.27c2.5,0.67,4.79,0.68,6.14-2.12 C468.82,190.86,466.77,191.56,464.72,192.27z M471.34,200.21c-2.24,0.04-4.39,0.43-6.34,1.63 C467.28,202.05,469.63,202.61,471.34,200.21z M465.46,206.3c2.01-0.18,4.4,1.22,6.21-1.35C469.18,204.53,467.36,205.66,465.46,206.3 z M465.49,214.94c1.12-0.06,1.98,0.02,2.78-0.18c0.98-0.25,2.16-0.2,2.74-1.28c0.09-0.17-0.08-0.7-0.26-0.77 c-1.01-0.42-1.8,0.33-2.62,0.68C467.31,213.74,466.2,213.58,465.49,214.94z M464.87,210.76c2.44,0.48,3.89,0.09,5.31-0.42 c0.51-0.18,1.02-0.54,0.84-1.18c-0.2-0.73-0.8-0.54-1.31-0.34C468.35,209.35,467,209.9,464.87,210.76z"></path><path class="st0" d="M18.9,195.89c0-5.71,0.01-11.43,0-17.14c0-1.32-0.07-2.4,1.89-1.57c17.78,7.48,35.84,5.71,53.88,1.25 c5.8-1.43,11.58-3.37,17.35-4.52c17.11-3.42,34.41-5.91,51.5,0.83c3.08,1.21,4.18,2.64,4.1,6.01c-0.26,10.67-0.09,21.34-0.1,32.02 c0,1.3,0.31,2.79-1.99,1.83c-16.88-7.1-34.08-5.8-51.38-1.86c-11.85,2.7-23.53,6.17-35.62,7.75c-12.71,1.66-25.12,0.75-37.15-4.04 c-1.94-0.77-2.57-1.73-2.52-3.75C18.99,207.1,18.9,201.5,18.9,195.89z M22.14,185.87c-0.13,0.35-0.26,0.71-0.39,1.06 c1.87,1.69,4.05,2.12,6.62,0.95C26.29,187.22,24.22,186.54,22.14,185.87z M21.35,194.94c-0.15,0.28-0.3,0.55-0.44,0.83 c1.95,1.96,4.44,1.67,6.87,1.68c0.07-0.29,0.14-0.58,0.22-0.88C25.78,196.03,23.57,195.49,21.35,194.94z M29.39,184.15 c-2.5-1.13-4.17-1.9-5.85-2.63c-0.5-0.22-1.12-0.3-1.38,0.3c-0.33,0.77,0.24,1.18,0.86,1.4C24.76,183.85,26.51,184.49,29.39,184.15z  M27.92,201.39c-1.62-0.45-3.24-0.9-4.86-1.35c-0.5-0.14-1.14-0.42-1.4,0.19c-0.36,0.83,0.41,1.08,0.98,1.32 C24.36,202.26,26.12,202.33,27.92,201.39z M21.11,212.79c2.05,2.13,4.07,2.21,6.25,1.77C25.52,213.92,23.94,212.51,21.11,212.79z  M27.28,210.71c-1.75-0.86-3.37-2.16-6.04-1.72C23.19,211.06,25.18,211.1,27.28,210.71z M28.11,192.45c-2.2-0.3-3.85-2.46-6.69-1.84 C23.45,192.77,25.66,193.06,28.11,192.45z M27.55,206.5c-0.02-0.16-0.05-0.31-0.07-0.47c-1.3-0.38-2.59-0.77-3.89-1.12 c-0.68-0.19-1.69-0.64-1.89,0.3c-0.24,1.12,0.92,1.23,1.73,1.27C24.81,206.56,26.18,206.5,27.55,206.5z"></path><path class="st1" d="M65.02,278.41c0.77,0.67,1.02,1.55,1.26,2.52c2.59,10.35,7.27,19.86,11.75,29.46c0.45,0.96,0.77,1.98,1.16,2.97 c0,4.18,0,8.37,0,13.09c-4-2.48-7.65-4.75-11.72-7.28c0,10.09,0.02,19.72-0.03,29.35c-0.01,1.26,0.82,1.66,1.6,2.16 c2.71,1.74,5.45,3.42,8.17,5.15c1.63,1.04,2.74,5.47,1.85,7.09c-0.33,0.59-0.83,0.6-1.35,0.59c-9.77-0.16-19.54,0.37-29.31-0.27 c0-7.73,0-15.45,0-23.18c0,7.73,0,15.45,0,23.18c-1.49,0.51-2.46,0.42-2.45-1.59c0.05-10.66,0.03-21.33,0.03-31.99 c0-0.87-0.11-1.79,1.22-1.73c1.18,0.05,0.94,0.94,0.96,1.64c0.03,1.4,0.19,2.83-0.02,4.19c-0.5,3.21,0.83,5.06,4.29,5.94 c0-3.36,0.11-6.63-0.04-9.89c-0.08-1.79,0.55-2.34,2.25-2.65c7.43-1.37,7.42-1.42,7.42,6.07c0,3.55,0.06,7.11-0.04,10.66 c-0.06,2.01,0.57,3.31,2.96,3.68c0-5.02,0.06-9.94-0.02-14.87c-0.07-4.26,0.4-8.51,0.08-12.79c-0.14-1.98-0.51-3.32-2.61-3.69 c-0.8,1-0.01,2.3-1,4.08c-2.95-3.09-5.76-5.96-8.47-8.92c-1.22-1.33-0.02-2.36,0.75-3.36c4.5-5.88,9.01-11.77,13.97-18.23 c-5.06,0.88-9.5,1.66-13.94,2.41c-7.98,1.34-8.1,1.33-7.96-6.7c0.32-18.95,0.16-37.9-0.08-56.85c-0.03-2.32,0.43-3.25,2.96-3.14 c3.21,0.13,6.44-0.22,9.67-0.36c-0.57,14.08,1.9,27.9,3.73,41.76c0,5.27,0.06,10.54-0.04,15.82c-0.04,2.05,0.68,3.21,3.01,3.5 C65.02,283.56,65.02,280.99,65.02,278.41z M48.17,245.46c0,9.42,0.14,18.56-0.07,27.68c-0.07,3.28,1.47,4.48,4.33,5.17 c0-9.14-0.16-18.05,0.08-26.96C52.6,248.1,51.44,246.39,48.17,245.46z"></path><path class="st1" d="M79.2,139.11c-0.29,0.36-0.57,0.72-0.86,1.08c-3.51-2.16-7.02-4.32-10.86-6.67c0,10.4-0.01,20.34,0.02,30.29 c0,0.35,0.37,0.71,0.57,1.06c-0.37,3.83-2.7,7.2-2.63,11.14c-5.85,1.56-11.81,2.07-17.84,2.15c-1.72,0.02-1.89-0.78-1.88-2.15 c0.04-7.86-0.12-15.71,0.06-23.57c0.28-12.47,0.16-24.94-0.02-37.42c-0.11-8.07-0.04-16.14,0.02-24.21c0.01-0.94-0.51-2.36,0.98-2.7 c1.86-0.43,1.09,1.31,1.55,2.06c0.81,1.33,2.27,1.84,3.56,2.51c0.22-0.19,0.48-0.31,0.49-0.45c0.27-4.3,0.26-4.3,5.54-4.21 c0.77,0.32,1.55,0.3,2.32-0.01c1.42-0.23,1.9,0.38,1.85,1.79c-0.08,2.47,0.07,4.96-0.05,7.43c-0.09,1.99,0.77,2.99,2.95,3.36 c0-3.18-0.11-6.28,0.06-9.35c0.06-1.11-1.14-3.22,1.31-3.17c2.21,0.04,1,1.99,1.06,2.99c0.19,3,0.21,6.04,0.02,9.04 c-0.13,2.01,0.65,3.09,2.3,4.07c3.14,1.85,7.37,3.26,8.87,6.07c1.58,2.96,0.53,7.33,0.55,11.09 C79.2,127.26,79.19,133.19,79.2,139.11z M52.43,154.68c0-9.37-0.17-18.48,0.09-27.58c0.1-3.33-1.5-4.45-4.35-5.42 c0,9.18,0.16,18.07-0.09,26.95C48,151.84,49.02,153.67,52.43,154.68z M62.06,130.31c0,9.99,0,19.77,0,29.56 c0,1.78,1.29,2.24,2.9,2.77c0-9.96-0.01-19.74,0.01-29.51C64.99,131.25,63.6,130.97,62.06,130.31z"></path><path class="st0" d="M247.66,405.03c-86.28,0.07-159.09-59.12-176.77-142.36c-2.53-11.93-3.74-24.04-3.62-36.26 c0-0.43,0.05-0.87,0-1.29c-0.16-1.44,0.67-1.95,1.9-1.94c1.52,0.01,0.87,1.25,0.87,1.92c-0.05,7.12,0.4,14.21,1.22,21.29 c4.04,34.85,17.23,65.86,39.81,92.65c28.95,34.35,65.87,54.85,110.32,61.39C311.66,413.7,398.61,353,417.53,263.75 c2.62-12.38,3.99-24.86,4.04-37.51c0-1.01-1.14-2.9,0.93-3.11c2.23-0.23,2,1.61,1.99,3.12c-0.28,37.93-10.93,72.66-33.1,103.47 c-28.48,39.58-66.97,63.72-114.94,72.65c-3.28,0.61-6.59,1.06-9.91,1.42C259.68,404.56,252.8,404.96,247.66,405.03z"></path><path class="st0" d="M247.38,345.48c-59.4,0-108.83-41.6-118.98-98.8c-1.72-9.7-1.9-19.5-1.37-29.32c0.06-1.13-0.7-3.07,1.85-2.84 c2.24,0.2,2.08,1.63,1.97,3.2c-1.63,22.14,2.43,43.23,13.16,62.64c18.87,34.14,47.66,54.73,86.47,60.14 c61.29,8.54,117.73-32.87,128.86-94.01c1.77-9.7,2.35-19.46,1.38-29.27c-0.2-2,0.63-2.37,2.18-2.62c2.22-0.35,1.52,1.39,1.59,2.31 c2.27,30.02-5.52,57.24-23.68,81.19c-19.56,25.81-45.69,41.01-77.67,46.14c-2.02,0.32-4.06,0.56-6.1,0.7 C253.28,345.2,249.51,345.36,247.38,345.48z"></path><path class="st1" d="M406.48,323.64c3.55-7.53,8.07-14.57,11.15-22.34c1.62-4.08,3.35-8.1,5.03-12.15 c5.17,2.27,7.68,7.14,10.45,11.5c1.14,1.78,0.33,4.81,0.37,7.28c0.03,1.72-0.28,3.5,0.06,5.16c0.89,4.34-1.78,6.72-4.51,9.24 c-1.56,1.44-2.25-0.28-3.28-0.68c-1.27-0.49-2.42-2.28-3.55-1.72c-1.19,0.6-0.46,2.52-0.47,3.84c-0.06,7.75,0.04,15.5-0.08,23.25 c-0.03,1.96,0.53,3.17,2.28,4.11c2.17,1.16,4.07,2.87,6.31,3.87c3.03,1.35,3.51,3.57,3.3,6.48c-0.11,1.51-0.49,2.07-2.04,2.06 c-9.8-0.06-19.59-0.11-29.39-0.01c-2.25,0.02-2.04-1.22-2.05-2.67c-0.02-9.15-0.06-18.3-0.09-27.44c0.92-1.02,0.87-2.77,2.46-3.28 c0.02,1.4,0.25,2.83,0.02,4.19c-0.53,3.24,1.28,4.48,4.01,5.36C406.48,334.19,406.48,328.91,406.48,323.64z M419.28,347.76 c0-9.44-0.07-18.56,0.05-27.68c0.03-2.37-0.84-3.54-3.15-4.02c0,9.48,0.06,18.83-0.05,28.18 C416.1,346.32,417.18,347.04,419.28,347.76z"></path><path class="st0" d="M75.27,173.88c18.7-65.65,84.43-128.18,174.42-126.26c88.97,1.9,149.74,65.72,166.56,126.07 c-2.69,0.57-3.13-1.38-3.76-3.25c-9.46-28.12-24.97-52.41-46.69-72.6c-27.63-25.7-60.18-41.36-97.71-45.89 c-49.25-5.95-93.58,6.48-132.41,37.38c-26.89,21.4-45.63,48.73-56.59,81.33C78.48,172.5,77.92,174.15,75.27,173.88z"></path><path class="st1" d="M402.54,122c-1.84-0.41-1.88-2.18-2.59-3.44c0.01-9.27,0-18.54,0.06-27.8c0.01-0.94-0.58-2.33,1.01-2.66 c1.8-0.37,1.23,1.12,1.57,2.02c0.57,1.55,2.38,1.6,3.34,2.69c0.32-0.34,0.54-0.48,0.55-0.62c0.25-4.2,0.25-4.2,4.71-4.2 c4.99,0,4.99,0,4.99,5.07c0,1.19,0.11,2.38-0.02,3.55c-0.24,2.14,0.48,3.53,3.12,4.07c0-3.65-0.02-7.22,0.01-10.79 c0.01-0.77-0.37-1.83,1.03-1.9c1.51-0.07,1.38,0.97,1.38,1.95c0,3.45,0.06,6.9-0.04,10.34c-0.05,1.68,0.42,2.77,1.96,3.64 c2.81,1.58,5.47,3.42,8.22,5.11c1.08,0.66,1.69,1.4,1.68,2.81c-0.07,9.46-0.04,18.92-0.04,28.92c-3.92-2.42-7.52-4.64-11.83-7.3 c0,8.96,0,17.37,0,25.78c-1.75-1.33-1.91-3.38-2.41-5.27c0.01-6.54-0.08-13.09,0.08-19.63c0.06-2.37-0.85-3.51-3.27-3.95 c0,5.62,0,11.09,0,16.56c-3.21-6.02-6.41-12.04-9.62-18.06C406.77,123.35,406.59,123.03,402.54,122z"></path><path class="st0" d="M247.44,106.83c43.64,1.91,78.31,21.41,101.79,60.19c1.03,1.69,1.7,2.98-1.05,3.64 c-1.92,0.46-1.87-1.15-2.35-1.98c-8.59-14.75-19.8-27.11-33.79-36.89c-55.44-38.76-131.55-22.07-165.86,36.32 c-0.22,0.37-0.47,0.73-0.62,1.13c-0.73,1.97-2.04,1.38-3.36,0.79c-1.85-0.83-0.41-1.81,0.01-2.52 c18.99-32.19,46.76-51.9,83.59-58.69c2.75-0.51,5.52-0.93,8.31-1.17C238.07,107.3,242.05,107.15,247.44,106.83z"></path><path class="st0" d="M59.05,295.18c-2.81,4.85-6.62,8.97-9.98,13.41c-1.24,1.64-1.26,2.55,0.28,3.97c3.47,3.2,6.74,6.61,10.36,10.2 c-4.84,1.63-9.54,1.75-14.18,1.88c-6.4,0.18-12.61-0.98-18.63-3.23c-1.85-0.69-2.68-1.55-2.63-3.7c0.15-7.75,0.05-15.5,0.06-23.26 c0-1.18-0.5-2.86,1.86-1.88c9.86,4.1,20.07,4.31,30.44,2.59c0.8-0.13,1.66-0.61,2.47,0.04L59.05,295.18z M26.95,300.78 c1.7,1.89,3.79,2.05,6.04,1.38C31.09,301.21,29.17,300.42,26.95,300.78z M26.15,305.15c2.51,2.23,4.71,2.54,7.19,1.51 C31.16,306.27,29.21,304.82,26.15,305.15z M26.38,309.75c2.66,1.75,3.5,1.85,7.3,0.98C31.08,310.31,29.17,308.98,26.38,309.75z  M33.01,315.54c-1.91-0.76-3.62-2.21-6.31-1.89C28.55,316.07,30.76,315.87,33.01,315.54z M33.39,298.04c-2.18-0.49-3.95-2.26-6.91-2 C28.64,298.34,30.87,298.66,33.39,298.04z M26.63,317.78c1.94,2.52,4.05,1.87,6.03,1.8C30.89,318.79,29.3,317.42,26.63,317.78z"></path><path class="st0" d="M434.41,295c7.9,0.99,15.78,1.92,23.72,0.2c3.46-0.75,6.74-2.03,10.39-3.15c0,9.14-0.02,18.03,0.02,26.93 c0.01,1.84-1.46,1.93-2.57,2.37c-8.72,3.48-17.79,3.83-26.96,2.65c-1.78-0.23-3.67-0.17-5.51-1.26c3.41-3.46,6.72-6.94,10.19-10.25 c1.35-1.29,1.57-2.1,0.31-3.67c-3.5-4.35-6.77-8.88-10.14-13.34C434.04,295.33,434.23,295.17,434.41,295z M459.73,301.82 c3.82,1.19,5.55,0.58,5.87-1.66C463.6,300.72,461.67,301.27,459.73,301.82z M466.09,305.66c-0.08-0.29-0.16-0.57-0.24-0.85 c-2.07,0.55-4.14,1.1-6.93,1.84C462.1,307.74,464.22,307.32,466.09,305.66z M459.54,297.84c4.18,0.65,4.95,0.36,6.39-2.28 C463.55,296.42,461.54,297.13,459.54,297.84z M459.89,310.91c4.66,0.54,4.75,0.52,6.18-1.49 C463.76,309.21,461.85,310.1,459.89,310.91z M459.39,315.52c2.31,0.64,3.97,0.22,5.58-0.45c0.48-0.2,0.99-0.58,0.77-1.19 c-0.23-0.64-0.85-0.52-1.33-0.34C462.88,314.11,461.37,314.73,459.39,315.52z M460.01,319.32c1.64,0.65,3.13,0.58,4.56,0 c0.58-0.23,1.39-0.48,1.17-1.28c-0.26-0.93-1.04-0.48-1.6-0.28C462.75,318.24,461.39,318.79,460.01,319.32z"></path><path class="st0" d="M469.02,173.57c-5.92,2.6-11.52,3.52-17.14,4.39c-1.38,0.21-2.07-0.18-1.95-1.66c0.04-0.54,0.01-1.08,0.01-1.62 c0-27.68-0.01-55.36-0.01-83.05c0-0.86-0.03-1.73,0.07-2.58c0.12-1.06,1-0.9,1.74-0.94c0.75-0.04,1.25,0.22,1.26,1.05 c0.01,0.86,0.03,1.72,0.03,2.58c0,24.77,0.04,49.55-0.05,74.32c-0.01,2.51,0.5,3.46,3.19,3.8 C460.36,170.4,464.56,171.33,469.02,173.57z"></path><path class="st0" d="M23,173.64c4.28-2.31,8.37-3.16,12.44-3.7c2.71-0.36,3.23-1.38,3.22-3.87c-0.08-24.79-0.05-49.58-0.05-74.37 c0-0.86-0.01-1.73,0.06-2.58c0.09-1.06,0.92-0.98,1.69-1c0.75-0.02,1.25,0.22,1.26,1.06c0.01,0.75,0.03,1.51,0.03,2.26 c0,27.7-0.03,55.4,0.05,83.1c0.01,2.65-0.17,3.72-3.41,3.14C33.24,176.78,28.3,175.77,23,173.64z"></path><path class="st0" d="M465.13,289.66c-4.46,1.75-8.6,2.75-12.93,3.05c-1.66,0.12-2.29-0.32-2.29-2.09c0.05-21,0.03-41.99,0.01-62.99 c0-1.27-0.01-2.4,1.78-2.33c2.11,0.08,1.28,1.66,1.28,2.6c0.05,18.52,0.07,37.04-0.02,55.56c-0.01,2.27,0.37,3.47,2.96,3.69 C458.91,287.39,461.84,288.17,465.13,289.66z"></path><path class="st0" d="M28.15,289.77c2.52-1.35,4.93-2.08,7.36-2.28c2.8-0.23,3.16-1.62,3.15-4.01c-0.08-18.19-0.05-36.37-0.05-54.56 c0-0.86,0-1.72,0.05-2.58c0.06-1.08,0.86-1.03,1.64-1.03c0.71,0,1.29,0.16,1.31,1.02c0.02,0.75,0.04,1.51,0.04,2.26 c0,20.34-0.05,40.68,0.05,61.01c0.01,2.57-0.62,3.48-3.2,2.98C35.14,291.92,31.76,291.33,28.15,289.77z"></path><path class="st0" d="M41.65,345.7c0,5.16,0.02,10.32-0.02,15.49c-0.01,0.96,0.47,2.31-1.32,2.35c-1.81,0.04-1.7-1.22-1.7-2.43 c0-10.43,0-20.86,0.01-31.29c0-1.03-0.29-2.27,1.49-2.18c1.59,0.08,1.55,1.14,1.54,2.26C41.65,335.16,41.66,340.43,41.65,345.7z"></path><path class="st0" d="M453.01,345.41c0,5.26,0.02,10.53-0.01,15.79c0,0.98,0.41,2.27-1.34,2.34c-1.83,0.08-1.73-1.15-1.73-2.37 c0-10.31,0-20.62-0.02-30.93c0-1.28,0.02-2.39,1.72-2.47c2.17-0.1,1.35,1.57,1.37,2.5c0.08,5.05,0.04,10.1,0.04,15.14 C453.02,345.41,453.02,345.41,453.01,345.41z"></path><path class="st1" d="M437.67,237.1c2.02,0.13,2.43,1.19,2.42,2.8c-0.04,9.48-0.02,18.96-0.02,28.51c-1.54-0.26-2.42-0.92-2.41-2.53 C437.68,256.31,437.67,246.75,437.67,237.1z"></path><path class="st1" d="M440.07,144.48c-1.83-0.16-2.41-1.06-2.41-2.58c0.02-9.53,0.01-19.05,0.01-28.66c1.49,0.26,2.42,0.66,2.42,2.23 C440.05,125.12,440.07,134.76,440.07,144.48z"></path><path class="st0" d="M344.54,219.99c4.48-1.99,8.34-3.44,12.56-4.24c0.38,3.17,0.94,6.2,0.59,9.64 C353.41,223.63,349.3,221.94,344.54,219.99z"></path><path class="st0" d="M147.3,219.97c-4.53,1.87-8.64,3.57-13.13,5.42c0.21-3.1,0.42-5.75,0.54-8.41c0.06-1.4,0.77-1.15,1.69-0.92 C140,216.96,143.48,218.17,147.3,219.97z"></path><path class="st1" d="M425.93,175.96c0.41-3.52-2.15-6.43-2.04-9.88c2.02,1.23,3.95,2.65,6.08,3.64c3.45,1.61,4.26,4.12,3.16,7.73 C430.74,176.95,428.34,176.45,425.93,175.96z"></path><path class="st1" d="M429.84,262.48c1.73-9.25,2.59-18.62,3.58-27.97c0,9.82,0,19.65,0,29.54 C431.83,264.08,431.05,262.8,429.84,262.48z"></path><path class="st1" d="M85.72,126.95c-0.26,1.68-0.86,3.21-2.05,4.47c0-6,0-12,0-18.03c2.06,0.09,2.12,1.46,2.11,2.93 C85.75,119.86,85.74,123.4,85.72,126.95z"></path><path class="st0" d="M48.39,363.24c0-7.73,0-15.45,0-23.18C48.4,347.79,48.4,355.51,48.39,363.24 C48.4,363.24,48.39,363.24,48.39,363.24z"></path><path class="st0" d="M91.37,87.61c-7.44,0-14.88,0-22.32,0c0,0.14,0,0.28-0.01,0.42c7.4,0,14.8,0,22.2,0 C91.29,87.89,91.33,87.75,91.37,87.61z"></path><path class="st1" d="M83.64,321.12c1.39,1.16,1.89,2.74,2.08,4.46c0,1.47,0,2.94,0,4.51C83.19,328.94,83.19,328.94,83.64,321.12z"></path><path class="st1" d="M437.81,306.82c3.12,3.01,3.12,4.02,0,6.2C437.81,310.97,437.81,309.03,437.81,306.82z"></path><path class="st1" d="M83.08,359.72c2.11,0.97,3.13,1.72,2.54,3.32c-0.23,0.62-0.94,0.64-1.38,0.41 C82.74,362.67,83.98,361.35,83.08,359.72z"></path><path class="st1" d="M437.71,360.12c1.41,0.37,2.58,0.82,2.34,2.55c-0.12,0.91-0.85,1.02-1.44,0.8 C436.86,362.8,437.92,361.32,437.71,360.12z"></path><path class="st1" d="M438.61,327.34c1.13-0.05,1.63,0.45,1.44,1.5c-0.09,0.5,0.35,1.47-0.67,1.3c-0.8-0.13-1.52-0.73-1.68-1.65 C437.57,327.79,437.83,327.27,438.61,327.34z"></path><path class="st1" d="M437.78,174.99c1.48,0.54,2.55,1.03,2.24,2.55c-0.15,0.75-0.81,0.58-1.27,0.46 C437.01,177.55,437.78,176.23,437.78,174.99z"></path><path class="st0" d="M60.22,88.02c-0.77,0.32-1.55,0.34-2.32,0.01C58.67,86.74,59.44,86.48,60.22,88.02z"></path><path class="st0" d="M50.31,87.65c0,0.05,0,0.15,0,0.15c-0.21,0.02-0.42,0.03-0.63,0.04c0.03-0.08,0.05-0.23,0.08-0.23 C49.94,87.61,50.12,87.63,50.31,87.65z"></path><path class="st0" d="M63.44,87.79c0.02,0.05,0.03,0.11,0.05,0.16c0.06-0.06,0.13-0.12,0.19-0.19C63.6,87.78,63.52,87.79,63.44,87.79 z"></path><path class="st0" d="M59.1,295.21c0.01-0.15,0.01-0.29,0.02-0.44c0.09,0.01,0.19,0.02,0.28,0.04c-0.12,0.12-0.23,0.25-0.35,0.37 L59.1,295.21z"></path><path class="st1" d="M288.83,372.68c0.1,0.23,0.19,0.46,0.29,0.68c-0.24-0.02-0.49-0.05-0.73-0.07 C288.53,373.09,288.68,372.88,288.83,372.68z"></path><path class="st0" d="M433.86,295.49c-0.18-0.26-0.38-0.55,0.05-0.74c0.11-0.05,0.33,0.16,0.5,0.25 C434.23,295.17,434.04,295.33,433.86,295.49z"></path><path class="st1" d="M409.33,428.19c-11.79-7.91-13.36-23.16-3.49-34.01c1.96-1.05,4.06-0.49,6.1-0.56 c-0.76,0.58-1.53,1.16-2.54,1.92c6.92,2.18,9.62,6.81,7.47,11.95c-2.18,5.21-7.19,6.36-13.66,3.07c-0.66,6.85,2.28,12.27,6.47,17.22 C409.55,427.89,409.43,428.03,409.33,428.19z"></path><path class="st1" d="M57.16,394.13c-0.14,0.68-2.8,1.09-0.09,2.08c5.51,2.01,7.71,7.01,5.35,11.76c-2.34,4.72-7.54,5.87-12.63,2.8 c-0.18-0.11-0.37-0.17-0.56-0.25c-1.08,4.58-0.04,7.64,5.8,17.02c-4.3-1.47-8.67-7.98-9.57-14.11c-1.12-7.67,1.27-14.17,6.45-19.78 C53.66,393.8,55.5,392.96,57.16,394.13z"></path><path class="st1" d="M53.66,379.81c-2.49,0-4.99,0-7.48,0c-0.01-2.92-0.02-5.85-0.03-8.78c2.52,0,5.04-0.01,7.56-0.01 C53.69,373.95,53.67,376.88,53.66,379.81z"></path><path class="st1" d="M407.8,379.79c-2.43,0-4.87,0-7.3,0c0-2.75,0.01-5.51,0.01-8.26c2.42-0.29,4.84-0.32,7.26-0.01 C407.78,374.28,407.79,377.04,407.8,379.79z"></path><path class="st1" d="M414.28,379.8c-0.02-2.91-0.03-5.83-0.05-8.74c1.67,0,3.35,0,5.02,0c-0.03,2.91-0.05,5.82-0.08,8.73 C417.54,379.79,415.91,379.79,414.28,379.8z"></path><path class="st1" d="M394.52,371.08c-0.02,2.9-0.05,5.79-0.07,8.69c-1.34,0.01-2.68,0.02-4.02,0.03c-0.02-2.92-0.03-5.85-0.05-8.78 C391.75,371.04,393.14,371.06,394.52,371.08z"></path><path class="st1" d="M64.88,371.5c0.01,2.76,0.01,5.52,0.02,8.28c-1.57,0-3.14,0-4.71,0c0.01-2.75,0.03-5.5,0.04-8.25 C61.78,371.25,63.33,371.23,64.88,371.5z"></path><path class="st1" d="M51.1,384.47c1.93-0.01,3.85-0.01,5.78-0.02c0,2.14,0,4.27,0.01,6.41c-1.93-0.01-3.86-0.02-5.79-0.03 C51.1,388.71,51.1,386.59,51.1,384.47z"></path><path class="st1" d="M411.02,390.84c-1.94,0-3.87,0.01-5.81,0.01c0.01-2.14,0.01-4.27,0.02-6.41c1.93,0,3.86,0.01,5.79,0.01 C411.03,386.59,411.02,388.71,411.02,390.84z"></path><path class="st1" d="M40.28,371.06c-0.02,2.91-0.03,5.82-0.05,8.73c-1.31,0-2.62,0-3.93,0c-0.02-2.92-0.05-5.84-0.07-8.76 C37.59,371.04,38.94,371.05,40.28,371.06z"></path><path class="st1" d="M416.16,390.88c0-2.15-0.01-4.3-0.01-6.45c1.27-0.61,2.55-0.57,3.82-0.02c0,2.15,0,4.31,0,6.46 C418.7,390.88,417.43,390.88,416.16,390.88z"></path><path class="st1" d="M61.95,390.82c0.01-2.12,0.02-4.24,0.03-6.36c1.23-0.26,2.46-0.28,3.69-0.01c0,2.13-0.01,4.26-0.01,6.39 C64.42,390.83,63.19,390.83,61.95,390.82z"></path><path class="st1" d="M400.58,384.45c0.01,2.15,0.02,4.3,0.03,6.45c-1.08-0.02-2.15-0.03-3.23-0.05c0.01-2.12,0.02-4.24,0.04-6.36 C398.47,384.47,399.53,384.46,400.58,384.45z"></path><path class="st1" d="M428.46,379.79c-0.02-2.92-0.05-5.85-0.07-8.77c0.67-0.01,1.34-0.01,2-0.02c-0.02,2.93-0.04,5.87-0.06,8.8 C429.7,379.8,429.08,379.79,428.46,379.79z"></path><path class="st1" d="M46.26,384.48c0,2.12-0.01,4.25-0.01,6.37c-1-0.02-2-0.04-3-0.06c-0.01-2.08-0.02-4.16-0.03-6.24 C44.24,384.52,45.25,384.5,46.26,384.48z"></path><path class="st1" d="M71.98,390.26c0.01-1.73,0.01-3.47,0.02-5.2c0.81-0.35,1.55-1,2.54-0.63c0,2.15,0,4.3,0,6.44 C73.69,390.67,72.84,390.47,71.98,390.26z"></path><path class="st1" d="M33.36,371.18c0.08,2.87,0.15,5.74,0.23,8.61c-0.32-0.05-0.78,0.02-0.93-0.16 C31.41,378.13,31.9,372.68,33.36,371.18z"></path><path class="st1" d="M74.21,379.78c0.03-2.72,0.06-5.44,0.08-8.16c0.57-0.03,1.14-0.07,1.71-0.1c0.01,2.75,0.02,5.5,0.03,8.25 C75.42,379.78,74.81,379.78,74.21,379.78z"></path><path class="st1" d="M387.78,371.06c-0.02,2.91-0.03,5.82-0.05,8.73c-0.21-0.02-0.52,0.04-0.61-0.08 C385.71,377.9,386.16,372.32,387.78,371.06z"></path><path class="st1" d="M395.34,384.49c0.05,1.92,0.1,3.83,0.15,5.75C393.71,388.78,393.65,386.35,395.34,384.49z"></path><path class="st1" d="M395.43,390.2c0.24,0.18,0.49,0.37,0.73,0.55C395.92,390.56,395.67,390.38,395.43,390.2z"></path><path class="st1" d="M53.73,80.93c-2.52-0.02-5.04-0.04-7.57-0.06c0-2.91,0.01-5.82,0.01-8.74c2.49,0,4.99,0,7.48,0 C53.68,75.06,53.71,78,53.73,80.93z"></path><path class="st1" d="M407.87,80.89c-2.46-0.15-4.91-0.31-7.37-0.46c0-2.75,0.01-5.5,0.01-8.25c2.43,0,4.85,0,7.28,0 C407.81,75.08,407.84,77.98,407.87,80.89z"></path><path class="st1" d="M419.17,72.16c0.04,2.92,0.07,5.83,0.1,8.75c-1.69,0-3.38,0-5.07,0c0.03-2.92,0.05-5.84,0.07-8.76 C415.91,72.16,417.54,72.16,419.17,72.16z"></path><path class="st1" d="M64.89,72.17c0,2.76-0.01,5.52-0.01,8.28c-1.55,0.28-3.11,0.25-4.66-0.01c-0.01-2.75-0.02-5.5-0.03-8.25 C61.77,72.18,63.33,72.17,64.89,72.17z"></path><path class="st1" d="M405.23,61.09c1.93,0,3.85,0.01,5.78,0.01c0,2.12,0.01,4.24,0.01,6.35c-1.93,0.33-3.85,0.22-5.78,0.03 C405.24,65.35,405.24,63.22,405.23,61.09z"></path><path class="st1" d="M56.87,67.46c-1.92,0.2-3.85,0.33-5.77,0c0.01-2.11,0.02-4.23,0.02-6.34c1.92-0.01,3.83-0.03,5.75-0.04 C56.88,63.2,56.87,65.33,56.87,67.46z"></path><path class="st1" d="M394.48,72.16c0.02,2.93,0.04,5.85,0.07,8.78c-1.39-0.01-2.78-0.01-4.17-0.02c0.02-2.93,0.04-5.85,0.05-8.78 C391.78,72.15,393.13,72.15,394.48,72.16z"></path><path class="st1" d="M40.24,72.14c0,2.74-0.01,5.48-0.01,8.22c-1.32,0.17-2.65,0.34-3.97,0.51c0.02-2.91,0.04-5.81,0.05-8.72 C37.62,72.15,38.93,72.15,40.24,72.14z"></path><path class="st1" d="M416.16,67.49c0-2.14,0.01-4.29,0.01-6.43c1.27,0,2.54,0.01,3.81,0.01c0.03,2.29,0.07,4.57,0.1,6.86 C418.77,67.73,417.39,68.26,416.16,67.49z"></path><path class="st1" d="M62,67.44c-0.02-2.11-0.03-4.21-0.04-6.32c1.23,0,2.46-0.01,3.69-0.02c0,2.12,0.01,4.23,0.01,6.35 C64.44,67.74,63.22,67.72,62,67.44z"></path><path class="st1" d="M400.6,61.08c0,2.14-0.01,4.27-0.01,6.41c-1.06,0-2.11-0.01-3.17-0.01c-0.01-2.13-0.02-4.27-0.04-6.4 C398.45,61.08,399.52,61.08,400.6,61.08z"></path><path class="st1" d="M46.24,61.12c0,2.08,0,4.16,0,6.24c-0.99,0.9-2.03,0.56-3.07,0.12c0.03-2.1,0.06-4.2,0.08-6.3 C44.25,61.15,45.25,61.14,46.24,61.12z"></path><path class="st1" d="M430.32,72.14c0.02,2.93,0.04,5.86,0.05,8.78c-0.66,0-1.33,0-1.99,0c0.02-2.93,0.04-5.86,0.07-8.79 C429.07,72.14,429.7,72.14,430.32,72.14z"></path><path class="st1" d="M72.01,66.87c-0.01-1.73-0.01-3.46-0.02-5.19c0.85-0.21,1.7-0.42,2.55-0.62c0,2.14,0,4.28,0,6.43 C73.55,67.86,72.82,67.21,72.01,66.87z"></path><path class="st1" d="M33.58,72.15c-0.01,1.96-0.03,3.92-0.04,5.88c-0.07,0.03-0.14,0.06-0.21,0.09c0.08,0.1,0.16,0.21,0.23,0.31 c-0.07,0.77-0.13,1.55-0.2,2.32C31.33,78.7,31.46,73.39,33.58,72.15z"></path><path class="st1" d="M76.03,72.17c-0.01,2.76-0.02,5.51-0.02,8.27c-0.58,0-1.16,0-1.73,0c-0.01-2.75-0.02-5.51-0.02-8.26 C74.84,72.17,75.44,72.17,76.03,72.17z"></path><path class="st1" d="M387.71,72.19c0.04,2.91,0.08,5.83,0.12,8.74c-0.21-0.04-0.5,0-0.61-0.12 C385.74,79.08,386.07,73.48,387.71,72.19z"></path><path class="st1" d="M41.64,61.61c-1.34,1.8-0.45,3.86-0.66,5.8c-2.19-1.43-0.82-3.48-0.83-5.24C40.14,61.57,40.73,60.7,41.64,61.61 z"></path><path class="st1" d="M395.5,61.7c-0.05,1.93-0.1,3.86-0.15,5.78C393.63,65.59,393.69,63.12,395.5,61.7z"></path><path class="st1" d="M396.18,61.15c-0.25,0.2-0.49,0.39-0.74,0.59C395.68,61.54,395.93,61.35,396.18,61.15z"></path><path class="st1" d="M73.36,410.25c-0.23,2.04-1.36,3.05-3.2,2.93c-1.68-0.1-2.72-1.14-2.72-2.92c0-1.96,1.23-3.01,3-2.99 C72.24,407.3,73.29,408.49,73.36,410.25z"></path><path class="st1" d="M424.66,413.24c-1.93-0.18-3-1.19-2.97-3.09c0.04-1.75,1.11-2.82,2.8-2.87c1.85-0.06,3.06,1.08,3.11,2.92 C427.64,412.05,426.46,413.07,424.66,413.24z"></path><path class="st1" d="M409.69,427.76c0.25,0.07,0.65,0.05,0.45,0.46c-0.05,0.1-0.52-0.02-0.8-0.03 C409.43,428.03,409.55,427.89,409.69,427.76z"></path><path class="st1" d="M59.74,24.36c3.97,1.78,6.08,4.49,5.85,8.68c-0.19,3.47-2.04,5.93-5.18,7.15c-3.98,1.54-7.35,0.22-10.28-3.32 c-2.16,6.79-0.51,12.83,2,18.8c-7.81-7.83-8.29-20.36-1.41-28.78c6.72-8.21,18.76-10.75,27.67-5.13 C71.48,20.69,65.5,20.67,59.74,24.36z"></path><path class="st1" d="M72.74,43.4c-0.25,1.92-1.27,2.95-3.18,2.83c-1.74-0.11-2.74-1.13-2.73-2.88c0.01-1.91,1.15-3,2.99-2.98 C71.66,40.39,72.66,41.55,72.74,43.4z"></path><path class="st1" d="M406.33,55.93c-6.23-5.91-8.01-15.35-4.5-23.75c3.6-8.59,11.9-13.87,21.18-13.47c4.29,0.19,6.89,1,10.72,3.5 c-3.7-0.48-6.84-1.6-10.11-1.12c-3.29,0.48-6.55,1.08-9.6,3.3c3.21,1.33,5.21,3.51,5.79,6.77c0.4,2.23-0.18,4.28-1.49,6.1 c-3.32,4.64-8.55,4.63-14.09-0.18c-2.07,6.69-0.65,12.7,2.66,18.45C406.71,55.67,406.52,55.8,406.33,55.93z"></path><path class="st1" d="M424.16,46.27c-1.97-0.04-3.05-1.05-3.08-2.93c-0.03-1.72,0.96-2.84,2.68-2.97c1.89-0.14,3.08,0.99,3.2,2.79 C427.08,44.98,426.03,46.11,424.16,46.27z"></path><path class="st1" d="M406.91,55.54c0.15,0.22,0.29,0.45,0.44,0.68c-0.11,0.11-0.22,0.22-0.33,0.33c-0.42,0.01-0.62-0.22-0.68-0.61 C406.52,55.8,406.71,55.67,406.91,55.54z"></path><path class="st1" d="M407.35,56.22c0.24,0.25,0.66,0.49,0.14,0.84c-0.03,0.02-0.31-0.33-0.47-0.51 C407.12,56.43,407.24,56.32,407.35,56.22z"></path><path class="st0" d="M33.56,78.44c-0.08-0.1-0.16-0.21-0.23-0.31c0.07-0.03,0.14-0.06,0.21-0.09c0,0,0.19,0.19,0.19,0.19 L33.56,78.44z"></path><g>	<g>		<g>			<path class="st2" d="M164.97,112.27l1.34,2.23c1.34,2.23,5.01,1.83,8.18-0.08c3.47-2.09,5.02-5.23,3.22-8.23    c-2.11-3.51-6.36-2.53-10.97-1.75c-4.89,0.9-9.99,1.63-13.21-3.73c-3.43-5.7-0.31-10.9,4.79-13.96c4.54-2.73,10.2-3.8,12.18-0.5    l2.14,3.56l-3.98,2.4l-1.26-2.1c-1.06-1.76-4.32-1.08-6.81,0.42c-2.96,1.78-4.49,4.56-2.81,7.35c1.93,3.21,5.62,2.46,9.78,1.71    c5.46-1.01,10.9-1.95,14.28,3.67c3.48,5.78,0.57,11.62-5.05,14.99c-4.71,2.83-11.25,3.9-13.85-0.43l-1.91-3.17L164.97,112.27z"></path>			<path class="st2" d="M206.81,67.26c9.95-2.27,19.44,3.62,21.7,13.52c2.31,10.14-3.64,19.8-13.59,22.07    c-9.99,2.28-19.5-3.87-21.81-14.01C190.86,78.95,196.82,69.54,206.81,67.26z M213.93,98.51c6.97-1.59,11.27-8.82,9.51-16.58    c-1.71-7.51-8.68-11.97-15.65-10.38c-7.02,1.6-11.36,8.64-9.65,16.15C199.9,95.45,206.91,100.11,213.93,98.51z"></path>			<path class="st2" d="M244.01,93.84l4.36,0.59l3.72-27.3l-4.36-0.59l0.52-3.81l13.72,1.87l-0.52,3.81l-4.41-0.6l-1.59,11.64    l18.13,2.47l1.59-11.64l-4.41-0.6l0.52-3.81l13.72,1.87l-0.52,3.81l-4.36-0.59l-3.72,27.3l4.36,0.59l-0.53,3.86l-13.72-1.87    l0.53-3.86l4.41,0.6l1.58-11.59l-18.13-2.47l-1.58,11.59l4.41,0.6l-0.53,3.86l-13.72-1.87L244.01,93.84z"></path>			<path class="st2" d="M323.77,83.37c8.96,4.88,12.18,15.58,7.32,24.49c-4.98,9.13-15.83,12.44-24.79,7.56    c-9-4.9-12.06-15.8-7.08-24.93C304.08,81.58,314.77,78.47,323.77,83.37z M308.44,111.51c6.28,3.42,14.29,0.84,18.09-6.14    c3.68-6.76,1.42-14.72-4.86-18.14c-6.32-3.45-14.24-1.04-17.92,5.72C299.94,99.94,302.11,108.07,308.44,111.51z"></path>		</g>	</g>	<g>		<g>			<path class="st2" d="M83.09,239.74l0.73,4.34l27.16-4.57l-0.73-4.34l3.8-0.64l1.55,9.22l-22.07,21.31    c-0.89,0.76-2.32,1.61-2.32,1.61l0.02,0.15c0,0,1.68-0.54,2.77-0.72l20.85-3.51l-0.75-4.44l3.8-0.64l2.32,13.76l-3.8,0.64    l-0.74-4.39l-31.01,5.22l-0.81-4.83l22.07-21.31c0.88-0.81,2.32-1.61,2.32-1.61l-0.02-0.15c0,0-1.68,0.54-2.78,0.67l-20.8,3.5    l0.76,4.49l-3.85,0.65l-2.32-13.75L83.09,239.74z"></path>			<path class="st2" d="M99.6,300.58l2.11,3.92l9.73-5.23l9.84-16.53l-1.59-2.95l3.39-1.82l5.75,10.7l-3.39,1.82l-1.75-3.26    l-6.67,11.03c-0.47,0.71-0.99,1.33-0.99,1.33l0.05,0.09c0,0,0.8-0.09,1.68-0.05l12.88,0.51l-1.73-3.21l3.39-1.82l5.71,10.61    l-3.39,1.82l-1.59-2.95l-19.22-0.9l-9.73,5.23l2.11,3.92l-3.44,1.85l-6.58-12.24L99.6,300.58z"></path>			<path class="st2" d="M155.49,323.63c3.03,2.98,8.5,10.54,4.67,14.42l-3.02,3.06l-3.31-3.26l1.93-1.96    c2.18-2.21-0.83-6.78-3.15-9.06c-5.38-5.3-13.23-5.24-18.84,0.46c-5.86,5.95-5.97,14.19-0.48,19.59c1.78,1.75,6.9,5.53,9.18,3.22    l1.93-1.96l3.31,3.26l-3.02,3.06c-3.65,3.71-11.18-1.26-14.67-4.7c-7.55-7.44-7.29-18.61-0.06-25.95    C137.23,316.45,148.22,316.47,155.49,323.63z"></path>			<path class="st2" d="M180.92,378.9l4.19,1.36l8.5-26.21l-4.19-1.36l1.19-3.66l15.27,4.95c2.43,0.79,4.16,1.61,5.57,2.91    c2.28,2.05,3.33,5.44,2.16,9.06c-1.06,3.28-3.53,5.37-6.58,5.86l-0.03,0.1c3.28,2.22,4.16,6.13,2.93,9.94    c-1.43,4.42-5.23,6.87-9.08,6.94c-1.79,0-3.39-0.42-5.24-1.02l-15.89-5.15L180.92,378.9z M197.06,383.92    c0.95,0.31,2.12,0.58,3.15,0.5c2.21-0.18,4.13-1.87,4.95-4.39c1.13-3.47-0.42-6.5-3.94-7.64l-7.51-2.44l-3.78,11.65    L197.06,383.92z M202.01,368.34c3.04,0.99,5.62-0.49,6.61-3.53c0.63-1.95,0.41-3.86-0.75-5.13c-0.8-0.78-1.83-1.33-3.26-1.79    l-6.33-2.05l-3.32,10.23L202.01,368.34z"></path>			<path class="st2" d="M225.6,390.81l3.4,0.06l11.75-31.21l5.65,0.09l10.74,31.57l3.4,0.05l-0.06,3.9l-12.25-0.2l0.06-3.9    l3.75,0.06l-2.62-7.89l-12.5-0.2l-2.88,7.8l3.8,0.06l-0.06,3.9l-12.25-0.2L225.6,390.81z M248.23,379.33l-4.1-12.32    c-0.48-1.46-0.56-2.71-0.56-2.71l-0.15,0c0,0-0.17,1.25-0.64,2.69l-4.55,12.18L248.23,379.33z"></path>			<path class="st2" d="M278.02,388.19l4.2-1.32l-8.29-26.27l-4.2,1.32l-1.16-3.67l14.59-4.6c2.38-0.75,4.37-1.27,6.42-1.24    c3.91,0.08,7.17,2.3,8.62,6.88c1.54,4.86-0.04,9.19-3.98,11.64l0.03,0.1c0,0,1.01,0.21,1.93,1.12l7.39,6.79    c0.81,0.74,1.49,0.74,2.68,0.36l1-0.32l1.17,3.72l-2.86,0.9c-2.86,0.9-3.69,0.59-5.47-1.05l-8.1-7.56    c-1.31-1.16-2.06-1.39-4.12-0.75l-4,1.26l3.11,9.87l4.15-1.31l1.17,3.72l-13.11,4.14L278.02,388.19z M289.4,369.45    c3.67-1.16,5.35-4.31,4.1-8.27c-0.83-2.62-2.45-4.1-4.82-4.3c-1.23-0.08-2.72,0.18-4.34,0.69l-5.58,1.76l3.87,12.25L289.4,369.45    z"></path>			<path class="st2" d="M323.94,370.49l3.61-2.52l-15.8-22.57l-3.61,2.52l-2.21-3.15l13.15-9.2c2.09-1.46,3.79-2.35,5.68-2.7    c3.01-0.58,6.35,0.62,8.53,3.73c1.98,2.83,2.16,6.05,0.71,8.78l0.06,0.08c3.74-1.28,7.4,0.37,9.7,3.65    c2.67,3.81,2.34,8.31,0.06,11.43c-1.08,1.43-2.37,2.45-3.97,3.57l-13.68,9.58L323.94,370.49z M328.21,347.29    c2.62-1.83,3-4.78,1.16-7.41c-1.18-1.68-2.83-2.66-4.55-2.49c-1.11,0.16-2.16,0.66-3.39,1.52l-5.45,3.81l6.17,8.81L328.21,347.29    z M337.67,360.63c0.82-0.57,1.75-1.34,2.29-2.22c1.19-1.87,1-4.42-0.52-6.59c-2.09-2.99-5.44-3.58-8.47-1.46l-6.47,4.53    l7.02,10.04L337.67,360.63z"></path>			<path class="st2" d="M361.54,340.49l2.73-3.45l-21.62-17.08l-2.73,3.45l-3.02-2.39l15.84-20.05l6.43,5.08l-2.7,3.41l-3.22-2.54    l-7.31,9.26l8.91,7.04l7.75-9.81l3.22,2.54l-7.75,9.81l9.14,7.22l7.84-9.92l-3.33-2.63l2.7-3.41l6.55,5.18l-16.36,20.71    L361.54,340.49z"></path>			<path class="st2" d="M387.86,302.91l1.59-4.1l-25.68-9.99l-1.59,4.1l-3.59-1.4l5.55-14.26c0.91-2.33,1.74-4.2,3.06-5.79    c2.51-3,6.28-4.16,10.76-2.42c4.75,1.85,7.14,5.78,6.58,10.39l0.09,0.04c0,0,0.79-0.66,2.08-0.8l9.92-1.51    c1.08-0.17,1.51-0.7,1.96-1.87l0.38-0.98l3.63,1.41l-1.09,2.8c-1.09,2.8-1.85,3.25-4.25,3.61l-10.97,1.58    c-1.72,0.29-2.38,0.74-3.16,2.74l-1.52,3.91l9.65,3.75l1.58-4.05l3.63,1.41l-4.98,12.82L387.86,302.91z M380.38,282.29    c1.4-3.59-0.01-6.87-3.88-8.38c-2.56-1-4.73-0.66-6.37,1.06c-0.84,0.91-1.57,2.23-2.18,3.82l-2.12,5.45l11.98,4.66L380.38,282.29    z"></path>			<path class="st2" d="M396.26,251.17l2.59,0.22c2.59,0.22,4.42-2.99,4.72-6.68c0.34-4.04-1.31-7.13-4.79-7.43    c-4.08-0.34-5.78,3.68-7.83,7.87c-2.13,4.49-4.52,9.05-10.75,8.53c-6.63-0.56-9.02-6.12-8.52-12.05    c0.44-5.28,2.89-10.49,6.72-10.17l4.14,0.35l-0.39,4.63l-2.44-0.21c-2.04-0.17-3.4,2.88-3.64,5.76    c-0.29,3.44,1.08,6.31,4.31,6.58c3.74,0.31,5.28-3.12,7.1-6.93c2.38-5.02,4.8-9.98,11.33-9.44c6.73,0.56,9.75,6.34,9.21,12.86    c-0.46,5.48-3.42,11.4-8.45,10.98l-3.69-0.31L396.26,251.17z"></path>		</g>	</g>	<g>		<circle class="st1" cx="136" cy="126" r="6"></circle>		<circle class="st1" cx="119" cy="152" r="6"></circle>	</g>	<g>		<circle class="st1" cx="356" cy="126" r="6"></circle>		<circle class="st1" cx="373" cy="152" r="6"></circle>	</g></g><g>	<path class="st3" d="M66.75,206.62l-13.74,1.75c-0.78-6.11-1.56-12.24-2.34-18.35l13.74-1.75l0.43,3.36l-10.3,1.31l0.54,4.22  l9.94-1.27l0.41,3.22l-9.94,1.27l0.53,4.14l10.3-1.31L66.75,206.62z"></path>	<path class="st3" d="M84.24,190.24c-0.76-0.97-2.62-1.74-4.61-1.49c-2.57,0.33-3.66,1.56-3.49,2.92c0.2,1.6,2.15,1.8,4.38,1.79  c3.89-0.02,7.58,0.52,8.14,4.9c0.52,4.09-2.87,6.31-6.96,6.83c-3.75,0.48-6.78-0.31-8.57-3.49l2.69-1.86  c1.07,1.91,3.31,2.53,5.54,2.25c2.18-0.28,4.12-1.3,3.87-3.29c-0.22-1.73-2.12-2.21-4.59-2.16c-3.81,0.03-7.39-0.52-7.92-4.64  c-0.48-3.78,3.04-5.8,6.42-6.25c2.86-0.36,5.92,0.07,7.67,2.72L84.24,190.24z"></path>	<path class="st3" d="M99.54,186.98l-5.82,0.74l-0.4-3.15c5.3-0.68,9.78-1.25,15.1-1.93l0.4,3.15l-5.82,0.74l1.94,15.21l-3.46,0.44  L99.54,186.98z"></path></g><g>	<path class="st1" d="M285.71,178.91c0.54-0.87,1.19-1.69,1.59-2.61c3.41-7.94,6.74-15.9,10.16-23.83c0.46-1.07,1.25-2,2.4-3.79  c0.88,3.17,1.83,5.54,2.17,8c2.7,19.5,2.99,39.12,2.81,58.76c-0.01,0.83,0,1.66,0,2.48c2.48,0.72,3.28,2.46,1.95,4.64  c-2,3.28-4.11,6.5-6.23,9.71c-0.34,0.51-0.9,1.06-1.46,1.2c-2.76,0.71-3.22,2.5-3.25,5.14c-0.12,9.75-7.78,18.16-17.66,19.77  c-9.94,1.62-18.37-3.41-21.66-13.37c-1.31-3.98-1.77-8.23-2.68-12.66c-2.3,0-5.01,0-7.76,0c-0.55,3.46-0.84,6.95-1.68,10.29  c-2.6,10.37-10.16,16.41-19.68,15.99c-10.23-0.45-18.57-7.66-20.26-17.53c-0.14-0.81-0.31-1.67-0.2-2.47  c0.36-2.65-0.46-4.41-3.2-5.17c-0.7-0.19-1.34-0.97-1.78-1.63c-1.87-2.82-3.61-5.73-5.49-8.54c-1.01-1.51-1.43-2.88-0.37-4.58  c0.42-0.68,0.46-1.71,0.38-2.56c-0.46-4.3-1.18-8.59-1.49-12.9c-0.21-2.91-1.46-5.07-3.94-6.18c-6.88-3.05-8.39-8.26-7.61-15.33  c1.21-10.97,4.92-20.68,11.98-29.18c1.51-1.82,2.94-2.27,5.2-1.73c13.11,3.16,24.59,9.24,34.3,18.62c0.39,0.38,0.79,0.75,1.33,0.91  c-9.82-11.11-22.34-17.81-37.19-21.97c3.54-2.74,6.49-5.19,9.64-7.33c0.79-0.53,2.31-0.28,3.41-0.02  c11.03,2.61,20.91,7.57,29.63,14.82c0.61,0.5,1.24,0.97,2.02,1.21c-8.82-8.86-19.58-14.41-32.21-18.26  c4.65-2.36,8.61-4.47,12.67-6.34c0.85-0.39,2.16-0.1,3.16,0.2c10.02,2.99,19.04,7.84,26.94,14.73c0.62,0.54,1.26,1.06,2.02,1.7  c-2.05-4.35-11.45-10.39-28.12-18.7c4.46-0.89,8.89-2.01,13.39-2.62c13.02-1.76,25.93-1.38,38.49,2.97  c8.31,2.88,15.37,7.52,20.25,15.02c0.51,0.78,0.93,2.23,0.55,2.89C292.82,158.24,288.72,168.35,285.71,178.91  c0.33,3.02-2.14,3.04-3.86,3.13c-12.22,0.59-24.45,1.05-36.68,1.43c-7.17,0.22-14.39-0.17-21.52,0.43  c-8.84,0.75-16.74,4.66-13.08,17.86c0.19,0.68-0.09,1.96-0.58,2.29c-7.25,4.73-9.41,12.19-10.88,20.01  c-0.47,2.48,1.39,3.93,3.85,3.1c13.34-4.51,26.43-4.17,39.79,0.55c4.29,1.52,10.01,1.62,14.27,0.11  c13.53-4.78,26.79-5.27,40.31-0.61c2.3,0.79,3.94-0.62,3.75-3.09c-0.06-0.82-0.28-1.63-0.47-2.43c-1.04-4.35-3.95-7.41-7.17-10.24  c-2.09-1.84-2.63-3.68-1.55-6.56c1.2-3.2,1.9-6.81,1.82-10.22c-0.13-5.77-1.07-11.49-7.33-14.33  C286.01,180.18,285.93,179.41,285.71,178.91z"></path>	<path class="st1" d="M292.63,282.3c1.37-1.11,2.74-2.21,4.11-3.32c-5.1,0.97-9.82,1.24-14.66-1.41  c8.33-2.79,13.19-9.34,18.49-15.39c4.98,11.34-7.54,39.77-21.72,49.2c1.45-4,2.88-7.95,4.31-11.9c-0.2-0.07-0.39-0.15-0.58-0.22  c-1.26,2.81-2.28,5.77-3.85,8.4c-1.58,2.64-3.33,5.43-5.69,7.28c-2.44,1.91-5.71,2.76-9.33,4.4c2.06-3.78,3.71-6.8,5.36-9.83  c-0.09-0.03-0.18-0.06-0.27-0.09c-2.26,2.97-4.41,6.04-6.84,8.87c-0.87,1.01-2.34,1.82-3.67,2.1  c-18.55,3.89-40.17-6.18-50.67-23.56c-6.42-10.63-8.77-22.29-8.68-35.27c5.85,6.43,10.66,13.17,18.88,15.93  c-4.45,2.31-5.38,2.38-15.21,1.03c1.39,1.13,2.33,1.9,3.28,2.67l-0.07-0.1c4.62,5.72,10.85,6.51,16.61,5.79  c2.67,2.63,4.61,5.14,7.09,6.83c3.01,2.05,6.51,3.37,9.75,5.08c1.89,1,3.04,0.18,3.66-1.5c0.86-2.32,1.65-4.68,2.24-7.08  c0.89-3.62,2-4.78,4.96-4.75c2.92,0.03,3.95,1.18,4.88,4.86c0.63,2.48,1.42,4.94,2.45,7.28c0.32,0.73,1.89,1.64,2.46,1.41  c6.62-2.67,13.55-5.01,17.02-12.26c0.77,0.1,1.59,0.28,2.4,0.29c5.07,0.08,9.83-0.72,13.38-4.85L292.63,282.3z"></path>	<path class="st1" d="M205.88,281.19c0.27-0.36,0.62-1.07,0.81-1.03c6.24,1.31,11.34-1.37,16.27-4.59c2.7-1.76,5.2-3.82,7.95-5.5  c3.27-1.99,6.71-3.72,10.2-5.63c-0.1-0.16-0.47-0.72-0.9-1.38c1.79-1.79,3.53-1.7,5.32-0.11c0.41,0.37,0.8,0.76,1.2,1.14  c2.95,2.77,3.68,2.79,6.65,0c1.88-1.77,3.71-3.55,6.55-1.11c-0.4,0.63-0.81,1.27-0.84,1.33c4.65,2.89,9.22,5.76,13.82,8.56  c3.61,2.2,7.08,4.77,10.95,6.32c3.02,1.21,6.56,1.1,9.75,1.56c-0.1,0.15-0.54,0.85-0.98,1.55l0.09-0.1  c-3.37,1.31-6.65,3.13-10.15,3.81c-4.84,0.94-9.51-0.7-13.85-2.84c-4.37-2.16-8.67-4.49-12.92-6.86c-2.17-1.21-4.2-2.7-5.68-3.66  c-0.85,0.61-2.02,1.67-3.38,2.38c-6.03,3.15-11.98,6.53-18.23,9.18c-7.7,3.27-15.29,3.09-21.95-2.88c-0.18-0.16-0.5-0.16-0.75-0.23  L205.88,281.19z"></path>	<path class="st1" d="M244.68,226.18c-6.31-1.31-12.16-3.12-18.12-3.59c-5.98-0.47-12.07,0.41-18.2,0.7  c3.29-5.04,8.37-7.33,14.4-7.28C231.45,216.07,239.2,218.5,244.68,226.18z"></path>	<path class="st1" d="M291.46,223.54c-12.2-2.35-24.05-1.77-35.65,2.96c3.99-7.2,10.81-9.49,18.2-10.37  C281.04,215.29,287.29,217.02,291.46,223.54z"></path></g><g>	<path class="st3" d="M357.16,186.42c0.56-4.26,4.81-5.6,8.53-5.14c4.03,0.5,8.2,2.68,7.61,7.46c-0.63,5.12-4.61,5.63-8.84,5.1  c-1.67-0.21-4.43-0.11-4.7,2.08l-0.21,1.73l12.52,1.55l-0.44,3.54l-16.32-2.02c0.22-1.76,0.43-3.51,0.66-5.3  c0.57-4.63,4.95-5.5,8.92-5c1.53,0.19,4.35,0.28,4.64-2.06c0.27-2.19-1.59-3.47-4.18-3.79c-1.99-0.25-4.15,0.51-4.41,2.32  L357.16,186.42z"></path>	<path class="st3" d="M381.14,192.19c1.49-12.03,19.16-9.82,17.68,2.19l-0.36,2.91c-1.48,12-19.16,9.85-17.68-2.19L381.14,192.19z   M384.55,195.56c-0.9,7.31,9.23,8.57,10.13,1.25l0.36-2.91c0.89-7.2-9.23-8.54-10.13-1.25L384.55,195.56z"></path>	<path class="st3" d="M405.3,203.62l3.02,0.37l1.67-13.47l-3.14-0.39l0.43-3.45l6.91,0.85l-2.09,16.93l2.79,0.35l-0.4,3.22  l-9.59-1.19L405.3,203.62z"></path>	<path class="st3" d="M428.35,200.83l0.38-3.11l2.91,0.36c2.04,0.25,4.27-0.03,4.53-1.9c0.14-1.15-0.59-2.79-3.81-3.19  c-1.79-0.22-4.28,0.11-4.51,1.96l-3.8-0.47c0.54-4.35,5.05-5.4,8.77-4.94c3.8,0.47,7.66,2.82,7.16,7.11  c-0.2,1.58-1.46,3.3-3.28,3.63c1.85,0.87,2.97,2.94,2.76,4.64c-0.61,4.92-5.42,5.82-9.31,5.34c-3.83-0.47-8.01-2.63-7.47-7.21  l3.83,0.47c-0.26,2.07,2.45,3.14,4.09,3.34c1.93,0.24,4.59-0.25,4.86-2.41c0.15-1.21-0.33-2.79-3.95-3.24L428.35,200.83z"></path></g><g></g><g></g><g></g><g></g><g></g><g></g><g></g><g></g><g></g><g></g><g></g><g></g><g></g><g></g><g></g></svg>